<svg width="91" height="24" viewBox="0 0 91 24" fill="none" xmlns="http://www.w3.org/2000/svg">
<mask id="mask0_6_95" style="mask-type:luminance" maskUnits="userSpaceOnUse" x="0" y="0" width="91" height="24">
<path d="M90.81 0H0V24H90.81V0Z" fill="white"/>
</mask>
<g mask="url(#mask0_6_95)">
<path fill-rule="evenodd" clip-rule="evenodd" d="M8.4111 0L14.3552 9.29876L8.4111 12.7585L2.46695 9.29876L8.4111 0ZM4.28528 8.85698L8.4111 2.40586L12.5369 8.85698L8.4111 11.2575L4.28528 8.85698Z" fill="white"/>
<path d="M8.40614 14.8025L1.51033 10.7892L1.32424 11.0819C-0.797143 14.4033 -0.32395 18.752 2.46202 21.541C5.74245 24.8198 11.0645 24.8198 14.3502 21.541C17.1415 18.752 17.6147 14.4033 15.488 11.0819L15.302 10.7892L8.40614 14.8025Z" fill="white"/>
<path d="M38.2062 18.3365H30.364V5.66321H32.7565V16.101H38.2062V18.3365Z" fill="#FFFCFC"/>
<path d="M50.2327 18.3365H47.8401V5.66321H50.2327V18.3365Z" fill="white"/>
<path d="M59.9305 18.3365V5.66321H64.0296C64.6517 5.66321 65.1568 5.6845 65.5395 5.73241C66.5287 5.8495 67.3843 6.2008 68.0971 6.78098C68.8197 7.36115 69.3678 8.10633 69.7401 9.0165C70.117 9.92139 70.3032 10.9167 70.3032 12.0025C70.3032 13.0883 70.117 14.0837 69.7401 14.9939C69.3626 15.8988 68.8145 16.6386 68.0971 17.2188C67.3791 17.7989 66.5287 18.1503 65.5395 18.2673C65.1516 18.3153 64.6463 18.3365 64.0296 18.3365H59.9305ZM64.0296 16.085C64.6517 16.085 65.1088 16.0531 65.4014 15.9946C65.9274 15.8881 66.3691 15.638 66.7201 15.244C67.0762 14.8448 67.3421 14.3658 67.512 13.8016C67.6878 13.2321 67.778 12.6306 67.778 11.9972C67.778 11.3638 67.6878 10.7358 67.5069 10.1662C67.3311 9.59667 67.0658 9.11765 66.7038 8.72909C66.3529 8.34052 65.917 8.0957 65.4014 7.99989C65.1088 7.94133 64.6517 7.90937 64.0296 7.90937H62.3602V16.0797H64.0296V16.085Z" fill="white"/>
<path d="M84.6745 18.6029C83.4252 18.6029 82.3407 18.3314 81.4099 17.7832C80.4849 17.2297 79.7727 16.4579 79.2726 15.4572C78.7783 14.4618 78.5338 13.3068 78.5338 11.9975C78.5338 10.6881 78.7783 9.53302 79.2726 8.53767C79.7727 7.54233 80.4849 6.77054 81.4099 6.22233C82.3348 5.66877 83.4252 5.39731 84.6745 5.39731C85.9238 5.39731 87.0083 5.67409 87.9391 6.22233C88.8641 6.77054 89.5763 7.54233 90.0654 8.53767C90.5655 9.53302 90.8152 10.6881 90.8152 11.9975C90.8152 13.3068 90.5655 14.4618 90.0654 15.4572C89.5711 16.4525 88.8641 17.2297 87.9391 17.7832C87.0135 18.3314 85.9238 18.6029 84.6745 18.6029ZM84.7432 16.3514C85.5197 16.3514 86.1683 16.1705 86.695 15.8138C87.2211 15.4572 87.62 14.9515 87.8807 14.3022C88.146 13.6528 88.2738 12.8863 88.2738 12.0027C88.2738 10.6402 87.9657 9.57561 87.3437 8.80917C86.7216 8.04267 85.807 7.65411 84.5999 7.65411C83.8235 7.65411 83.1748 7.83509 82.6488 8.1917C82.1227 8.54837 81.7238 9.054 81.4631 9.70337C81.1971 10.3527 81.07 11.1192 81.07 12.0027C81.07 13.3654 81.3781 14.4299 82.0001 15.1964C82.6222 15.9629 83.5368 16.3514 84.7432 16.3514Z" fill="white"/>
</g>
</svg>
